<?xml version="1.0" encoding="UTF-8" standalone="no"?>
<svg
   xmlns:dc="http://purl.org/dc/elements/1.1/"
   xmlns:cc="http://creativecommons.org/ns#"
   xmlns:rdf="http://www.w3.org/1999/02/22-rdf-syntax-ns#"
   xmlns:svg="http://www.w3.org/2000/svg"
   xmlns="http://www.w3.org/2000/svg"
   xmlns:xlink="http://www.w3.org/1999/xlink"
   xmlns:sodipodi="http://sodipodi.sourceforge.net/DTD/sodipodi-0.dtd"
   xmlns:inkscape="http://www.inkscape.org/namespaces/inkscape"
   inkscape:export-ydpi="90"
   inkscape:export-xdpi="90"
   inkscape:export-filename="/home/fpuga/development/upstream/icarto.Leaflet.draw/src/images/spritesheet-2x.png"
   sodipodi:docname="spritesheet.svg"
   inkscape:version="1.0 (4035a4fb49, 2020-05-01)"
   version="1.1"
   id="svg4225"
   width="600"
   height="60"
   viewBox="0 0 600 60">
  <metadata
     id="metadata4258">
    <rdf:RDF>
      <cc:Work
         rdf:about="">
        <dc:format>image/svg+xml</dc:format>
        <dc:type
           rdf:resource="http://purl.org/dc/dcmitype/StillImage" />
        <dc:title />
      </cc:Work>
    </rdf:RDF>
  </metadata>
  <defs
     id="defs4256" />
  <sodipodi:namedview
     inkscape:document-rotation="0"
     inkscape:current-layer="enabled"
     inkscape:window-maximized="1"
     inkscape:window-y="-8"
     inkscape:window-x="-8"
     inkscape:cy="46.889544"
     inkscape:cx="141.29481"
     inkscape:zoom="7.4115267"
     showgrid="false"
     id="namedview4254"
     inkscape:window-height="1137"
     inkscape:window-width="1920"
     inkscape:pageshadow="2"
     inkscape:pageopacity="0"
     guidetolerance="10"
     gridtolerance="10"
     objecttolerance="10"
     borderopacity="1"
     bordercolor="#666666"
     pagecolor="#ffffff" />
  <g
     style="fill:#464646;fill-opacity:1"
     id="enabled">
    <g
       style="fill:#464646;fill-opacity:1"
       id="polyline">
      <path
         style="fill:#464646;fill-opacity:1"
         inkscape:connector-curvature="0"
         id="path4229"
         d="m 18,36 0,6 6,0 0,-6 -6,0 z m 4,4 -2,0 0,-2 2,0 0,2 z" />
      <path
         style="fill:#464646;fill-opacity:1"
         inkscape:connector-curvature="0"
         id="path4231"
         d="m 36,18 0,6 6,0 0,-6 -6,0 z m 4,4 -2,0 0,-2 2,0 0,2 z" />
      <path
         style="fill:#464646;fill-opacity:1"
         inkscape:connector-curvature="0"
         id="path4233"
         d="m 23.142,39.145 -2.285,-2.29 16,-15.998 2.285,2.285 z" />
    </g>
    <path
       inkscape:connector-curvature="0"
       d="M 100,24.565 97.904,39.395 83.07,42 76,28.773 86.463,18 Z"
       id="polygon" />
    <path
       inkscape:connector-curvature="0"
       d="m 221,30 c 0,6.078 -4.926,11 -11,11 -6.074,0 -11,-4.922 -11,-11 0,-6.074 4.926,-11 11,-11 6.074,0 11,4.926 11,11 z"
       id="circle" />
    <path
       inkscape:connector-curvature="0"
       d="m 270,19 c -4.971,0 -9,4.029 -9,9 0,4.971 5.001,12 9,14 4.001,-2 9,-9.029 9,-14 0,-4.971 -4.029,-9 -9,-9 z m 0,12.5 c -2.484,0 -4.5,-2.014 -4.5,-4.5 0,-2.484 2.016,-4.5 4.5,-4.5 2.485,0 4.5,2.016 4.5,4.5 0,2.486 -2.015,4.5 -4.5,4.5 z"
       id="marker" />
    <g
       id="edit">
      <path
         inkscape:connector-curvature="0"
         id="path4240"
         d="m 337,30.156 0,0.407 0,5.604 c 0,1.658 -1.344,3 -3,3 l -10,0 c -1.655,0 -3,-1.342 -3,-3 l 0,-10 c 0,-1.657 1.345,-3 3,-3 l 6.345,0 3.19,-3.17 -9.535,0 c -3.313,0 -6,2.687 -6,6 l 0,10 c 0,3.313 2.687,6 6,6 l 10,0 c 3.314,0 6,-2.687 6,-6 l 0,-8.809 -3,2.968" />
      <path
         inkscape:connector-curvature="0"
         id="path4242"
         d="m 338.72,24.637 -8.892,8.892 -2.828,0 0,-2.829 8.89,-8.89 z" />
      <path
         inkscape:connector-curvature="0"
         id="path4244"
         transform="matrix(-0.70698336,-0.70723018,0.70723018,-0.70698336,567.55917,274.78273)"
         d="m 338.697,17.826 4,0 0,4 -4,0 z" />
    </g>
    <g
       id="remove">
      <path
         inkscape:connector-curvature="0"
         id="path4247"
         d="m 381,42 18,0 0,-18 -18,0 0,18 z m 14,-16 2,0 0,14 -2,0 0,-14 z m -4,0 2,0 0,14 -2,0 0,-14 z m -4,0 2,0 0,14 -2,0 0,-14 z m -4,0 2,0 0,14 -2,0 0,-14 z" />
      <path
         inkscape:connector-curvature="0"
         id="path4249"
         d="m 395,20 0,-4 -10,0 0,4 -6,0 0,2 22,0 0,-2 -6,0 z m -2,0 -6,0 0,-2 6,0 0,2 z" />
    </g>
    <path
       sodipodi:nodetypes="ccc"
       id="path1163"
       d="m 140.08334,28.555176 0,12.361493 h 11.97887"
       style="fill:none;stroke:#464646;stroke-width:4;stroke-linecap:butt;stroke-linejoin:round;stroke-miterlimit:4;stroke-dasharray:8, 4;stroke-dashoffset:3.6;stroke-opacity:1" />
    <path
       style="fill:none;fill-opacity:1;stroke:#464646;stroke-width:4;stroke-linecap:butt;stroke-linejoin:round;stroke-miterlimit:4;stroke-dasharray:8, 4;stroke-dashoffset:3.6;stroke-opacity:1"
       d="m 152.4281,19.184743 h -12.36149 v 11.97887"
       id="path1163-4"
       sodipodi:nodetypes="ccc" />
    <path
       style="fill:none;fill-opacity:1;stroke:#464646;stroke-width:4;stroke-linecap:butt;stroke-linejoin:round;stroke-miterlimit:4;stroke-dasharray:8, 4;stroke-dashoffset:3.6;stroke-opacity:1"
       d="m 148.50737,40.920198 h 12.36149 v -11.97887"
       id="path1163-2"
       sodipodi:nodetypes="ccc" />
    <path
       style="fill:none;fill-opacity:1;stroke:#464646;stroke-width:4;stroke-linecap:butt;stroke-linejoin:round;stroke-miterlimit:4;stroke-dasharray:8, 4;stroke-dashoffset:3.6;stroke-opacity:1"
       d="M 160.84506,31.546232 V 19.184742 H 148.86619"
       id="path1163-5"
       sodipodi:nodetypes="ccc" />
  </g>
  <g
     style="fill:#bbbbbb;fill-opacity:1"
     transform="translate(120,0)"
     id="disabled">
    <use
       height="100%"
       width="100%"
       y="0"
       x="0"
       id="edit-disabled"
       xlink:href="#edit" />
    <use
       height="100%"
       width="100%"
       y="0"
       x="0"
       id="remove-disabled"
       xlink:href="#remove" />
  </g>
  <path
     inkscape:connector-curvature="0"
     d="m 581.65725,30 c 0,6.078 -4.926,11 -11,11 -6.074,0 -11,-4.922 -11,-11 0,-6.074 4.926,-11 11,-11 6.074,0 11,4.926 11,11 z"
     id="circle-3"
     style="fill:none;stroke:#464646;stroke-width:2;stroke-miterlimit:4;stroke-dasharray:none;stroke-opacity:1" />
</svg>
